<svg xmlns="http://www.w3.org/2000/svg" width="40.36" height="28.969" viewBox="0 0 40.36 28.969"><defs><style>.a{fill:#fff;}</style></defs><g transform="translate(0)"><g transform="translate(0 0)"><g transform="translate(0 0)"><path class="a" d="M37.314,17.146V12.213l-12.2,8.207,12.2,8.207V23.29a44.589,44.589,0,0,1,5.471.269c6.816.807,8.61,5.067,8.61,5.067,0-10.4-14.081-11.48-14.081-11.48" transform="translate(-11.035 -12.213)"/><path class="a" d="M17.531,36.869A44.589,44.589,0,0,1,12.06,36.6c-6.816-.807-8.61-5.067-8.61-5.067,0,10.4,14.081,11.48,14.081,11.48v4.933l12.2-8.207-12.2-8.207Z" transform="translate(-3.45 -18.977)"/></g></g></g></svg>