<?xml version="1.0" standalone="no"?><!DOCTYPE svg PUBLIC "-//W3C//DTD SVG 1.1//EN" "http://www.w3.org/Graphics/SVG/1.1/DTD/svg11.dtd"><svg class="icon" height="512" viewBox="0 0 1024 1024" version="1.1" xmlns="http://www.w3.org/2000/svg"><path d="M838.3 557.4c32.6-67.5 65.2-135.1 81.7-169.3 2.4-5 2.1-10.8-0.9-15.5-2.9-4.7-8-7.5-13.6-7.5-10.1 0-21.1 0-28.8 0-6.2 0-11.8 3.5-14.4 9.1-8.9 18.6-30.7 64-56.1 116.9-25.7-53-47.7-98.4-56.7-117-2.7-5.5-8.3-9-14.4-9-7.5 0-18.1 0-27.9 0-5.5 0-10.6 2.8-13.6 7.5-2.9 4.7-3.2 10.5-0.8 15.5 16.5 34.1 49.2 101.5 81.8 168.8-32.3 67.3-64.6 134.7-81 168.8-2.4 5-2 10.8 0.9 15.4 2.9 4.7 8 7.5 13.5 7.5 9.8 0 20.4 0 28 0 6.1 0 11.7-3.5 14.4-9 9-18.6 30.8-63.8 56.2-116.6 25.6 52.8 47.5 98 56.5 116.6 2.7 5.5 8.3 9 14.4 9 7.5 0 18.1 0 27.9 0 5.5 0 10.6-2.8 13.6-7.5 2.9-4.7 3.2-10.5 0.8-15.5C903.4 691.6 870.9 624.5 838.3 557.4zM512.018047 63.895726l0.206154 0 0.206154 0 0.206154 0 0.206154 0 0.206154 0 0.206154 0 0.206154 0 0.206154 0 0.206154 0 0.206154 0 0.206154 0 0.206154 0 0.206154 0 0.206154 0 0.206154 0 0.206154 0 0.206154 0 0.206154 0 0.206154 0 0.206154 0 0.206154 0 0.206154 0 0.206154 0 0.206154 0 0.206154 0 0.206154 0 0.206154 0 0.206154 0 0.206154 0.103077 0.206154 0 0.206154 0.103077 0.206154 0.103077 0.206154 0 0.206154 0.103077 0.206154 0.103077 0.206154 0.103077 0.206154 0.103077 0.206154 0.103077 0.206154 0.103077 0.206154 0.103077 0.206154 0.103077 0.206154 0.103077 0.206154 0.103077 0.206154 0.103077 0.206154 0.103077 0.206154 0.103077 0.206154 0.103077 0.206154 0.103077 0.206154 0.103077 0.206154 0.103077 0.206154 0.103077 0.206154 0.103077 0.206154 0.103077 0.206154 0.103077 0.206154 0.103077 0.206154 0.103077 0.206154 0.103077 0.206154 0.103077 0.206154 0.103077 0.206154 0.103077 0.206154 0.103077 0.206154 0.103077 0.206154 0.103077 425.295702 222.130935 0.103077 0.103077 0.103077 0.103077 0.103077 0.103077 0.103077 0.103077 0.103077 0.103077 0.103077 0.103077 0.103077 0.103077 0.103077 0.103077 0.103077 0.103077 0.103077 0.103077 0.103077 0.103077 0.103077 0.103077 0.103077 0.103077 0.103077 0.103077 0.103077 0.103077 0.103077 0.103077 0.103077 0.103077 0.103077 0.103077 0.103077 0.103077 0.103077 0.103077 0.103077 0.103077 0.103077 0.103077 0.103077 0.103077 0.103077 0.103077 0.103077 0.103077 0.103077 0.103077 0.103077 0.103077 0.103077 0.103077 0.103077 0.103077 0.103077 0.103077 0.103077 0.103077 0.103077 0.103077 0.103077 0.103077 0.103077 0.103077 0.103077 0.103077 0.103077 0.103077 0.103077 0.103077 0.103077 0.103077 0.103077 0.103077 0.103077 0.103077 0.103077 0.103077 0.103077 0.103077 0.103077 0.103077 0.103077 0.103077 0.103077 0.103077 0.103077 0.103077 0.103077 0.103077 0.103077 0.103077 0.103077 0.103077 0.103077 0.103077 0.103077 0.103077 0.103077 0.103077 0.103077 0.103077 0.103077 0.103077 0.103077 0.103077 0.103077 0.103077 0.103077 0.103077 0.103077 0.103077 0.103077 0.103077 0.103077 0.103077 0.103077 0.103077 0.103077 0.103077 0.103077 0.103077 0.103077 0.206154 0.103077 0.103077 0.103077 0.206154 0.103077 0.103077 0.103077 0.103077 0.103077 0.206154 0.103077 0.103077 0.103077 0.206154 0.103077 0.206154 0.103077 0.103077 0.103077 0.206154 0 0.206154 0 0.206154 0 0.206154 0 0.103077 0 0.206154 0 0.206154 0 0.206154 0 0.103077 0 0.206154 0 0.206154 0 0.206154 0 0.206154 0 0.206154 0 0.206154 0 0.206154 0 0.103077 0 0.206154 0 0.206154 0 0.206154 0 0.206154 0 0.206154 0 0.206154 0 0.206154 0 0.206154 0 0.206154 0 0.206154 0 0.206154 0 0.206154 0 0.206154 0 0.206154 0 0.206154 0 0.206154 0 0.206154 0 0.206154 0 0.206154 0 0.206154 0 0.206154 0 0.206154 0 0.206154 0 0.206154 0 0.206154 0 0.206154 0 0.206154 0 0.206154 0 0.206154 0 0.206154 0 0.206154 0 0.206154 0 0.206154 0 0.206154 0 0.206154 0 0.206154 0 0.206154 0 0.206154 0 0.206154 0 0.206154 0 0.206154 0 0.206154 0 0.206154 0 0.206154 0 0.206154-0.103077 0.206154-0.103077 0.206154-0.103077 0.206154-0.103077 0.206154-0.103077 0.206154-0.103077 0.206154-0.103077 0.206154-0.103077 0.103077-0.103077 0.206154-0.103077 0.206154-0.103077 0.103077-0.103077 0.206154-0.103077 0.206154-0.103077 0.103077-0.103077 0.206154-0.103077 0.103077-0.103077 0.206154-0.103077 0.103077-0.103077 0.103077-0.103077 0.103077-0.103077 0.103077-0.103077 0.103077-0.103077 0.103077-0.103077 0.103077-0.103077 0.103077-0.103077 0.103077-0.103077 0.103077-0.103077 0.103077-0.103077 0.103077-0.103077 0.103077-0.103077 0.103077-0.103077 0.103077-0.103077 0.103077-0.103077 0.103077-0.103077 0.103077-0.103077 0.103077-0.103077 0.103077-0.103077 0.103077-0.103077 0.103077-0.103077 0.103077-0.103077 0.103077-0.103077 0.103077-0.103077 0.103077-0.103077 0.103077-0.103077 0.103077-0.103077 0.103077-0.103077 0.103077-0.103077 0.103077-0.103077 0.103077-0.103077 0.103077-0.103077 0.103077-0.103077 0.103077-0.103077 0.103077-0.103077 0.103077-0.103077 0.103077-0.103077 0.103077-0.103077 0.103077-0.103077 0.103077-0.103077 0.103077-0.103077 0.103077-0.103077 0.103077-0.103077 0.103077-0.103077 0.103077-0.103077 0.103077-0.103077 0.103077-0.103077 0.103077-0.103077 0.103077-0.103077 0.103077-0.103077 0.103077-0.103077 0.103077-0.103077 0.103077-0.103077 0.103077-0.103077 0.103077-0.103077 0.103077-0.103077 0.103077-0.103077 0.103077-0.103077 0.103077-0.103077 0.103077-0.103077 0.103077-0.103077 0.103077-0.103077 0.103077-0.103077 0.103077-0.103077 0.103077-0.103077 0.103077-0.103077 0.103077-0.103077 0.103077-0.206154 0.103077-0.206154 0-0.206154 0.103077-0.206154 0-0.206154 0.103077-0.206154 0-0.206154 0.103077-0.206154 0-0.206154 0-0.206154 0-0.206154 0-0.206154 0-0.206154 0-0.206154 0-0.206154 0-0.206154 0-0.206154 0-0.206154 0-0.206154 0-0.206154 0-0.206154 0-0.206154 0-0.206154 0-0.206154 0-0.206154 0-0.206154 0-0.206154 0-0.206154 0-0.206154 0-0.206154 0-0.206154 0-0.206154 0-0.206154 0-0.206154 0-0.206154 0L78.373108 320.557456l-0.206154 0-0.206154 0-0.206154 0-0.206154 0-0.206154 0-0.206154 0-0.206154 0-0.206154 0-0.206154 0-0.206154 0-0.206154 0-0.206154 0-0.206154 0-0.206154 0-0.206154 0-0.206154 0-0.206154 0-0.206154 0-0.206154 0-0.206154 0-0.206154 0-0.206154 0-0.206154 0-0.206154 0-0.206154 0-0.206154 0-0.206154 0-0.206154 0-0.206154-0.103077-0.206154 0-0.206154-0.103077-0.206154 0-0.206154-0.103077-0.206154 0-0.103077-0.103077-0.103077-0.103077-0.103077-0.103077-0.103077-0.103077-0.103077-0.103077-0.103077-0.103077-0.103077-0.103077-0.103077-0.103077-0.103077-0.103077-0.103077-0.103077-0.103077-0.103077-0.103077-0.103077-0.103077-0.103077-0.103077-0.103077-0.103077-0.103077-0.103077-0.103077-0.103077-0.103077-0.103077-0.103077-0.103077-0.103077-0.103077-0.103077-0.103077-0.103077-0.103077-0.103077-0.103077-0.103077-0.103077-0.103077-0.103077-0.103077-0.103077-0.103077-0.103077-0.103077-0.103077-0.103077-0.103077-0.103077-0.103077-0.103077-0.103077-0.103077-0.103077-0.103077-0.103077-0.103077-0.103077-0.103077-0.103077-0.103077-0.103077-0.103077-0.103077-0.103077-0.103077-0.103077-0.103077-0.103077-0.103077-0.103077-0.103077-0.103077-0.103077-0.103077-0.103077-0.103077-0.103077-0.103077-0.103077-0.103077-0.103077-0.103077-0.103077-0.103077-0.103077-0.103077-0.103077-0.103077-0.103077-0.103077-0.103077-0.103077-0.103077-0.103077-0.103077-0.103077-0.103077-0.103077-0.103077-0.103077-0.103077-0.103077-0.103077-0.103077-0.103077-0.103077-0.103077-0.103077-0.103077-0.103077-0.103077-0.103077-0.103077-0.103077-0.103077-0.103077-0.103077-0.103077-0.103077-0.103077-0.103077-0.103077-0.103077-0.103077-0.103077-0.103077-0.103077-0.103077-0.103077-0.103077-0.103077-0.206154-0.103077-0.103077-0.103077-0.103077-0.103077-0.103077-0.103077-0.206154-0.103077-0.103077-0.103077-0.206154-0.103077-0.206154-0.103077-0.103077-0.103077-0.206154-0.103077-0.206154-0.103077-0.206154-0.103077-0.206154-0.103077-0.206154-0.103077-0.206154-0.103077-0.206154-0.103077-0.206154-0.103077-0.103077 0-0.206154 0-0.206154 0-0.206154 0-0.206154 0-0.206154 0-0.206154 0-0.206154 0-0.206154 0-0.206154 0-0.206154 0-0.206154 0-0.206154 0-0.206154 0-0.206154 0-0.206154 0-0.206154 0-0.206154 0-0.206154 0-0.206154 0-0.206154 0-0.206154 0-0.206154 0-0.206154 0-0.206154 0-0.206154 0-0.206154 0-0.206154 0-0.206154 0-0.206154 0-0.206154 0-0.206154 0-0.206154 0-0.206154 0-0.206154 0-0.206154 0-0.206154 0-0.206154 0-0.206154 0-0.206154 0-0.206154 0-0.206154 0-0.206154 0-0.206154 0-0.206154 0-0.206154 0-0.206154 0-0.206154 0-0.103077 0-0.206154 0-0.206154 0-0.206154 0-0.103077 0-0.206154 0-0.206154 0-0.206154 0-0.103077 0-0.206154 0-0.206154 0-0.206154 0.103077-0.206154 0.103077-0.103077 0.103077-0.206154 0.103077-0.103077 0.103077-0.206154 0.103077-0.206154 0.103077-0.103077 0.103077-0.206154 0.103077-0.103077 0.103077-0.206154 0.103077-0.103077 0.103077-0.206154 0.103077-0.103077 0.103077-0.103077 0.103077-0.206154 0.103077-0.103077 0.103077-0.103077 0.103077-0.103077 0.103077-0.103077 0.103077-0.103077 0.103077-0.103077 0.103077-0.103077 0.103077-0.103077 0.103077-0.103077 0.103077-0.103077 0.103077-0.103077 0.103077-0.103077 0.103077-0.103077 0.103077-0.103077 0.103077-0.103077 0.103077-0.103077 0.103077-0.103077 0.103077-0.103077 0.103077-0.103077 0.103077-0.103077 0.103077-0.103077 0.103077-0.103077 0.103077-0.103077 0.103077-0.103077 0.103077-0.103077 0.103077-0.103077 0.103077-0.103077 0.103077-0.103077 0.103077-0.103077 0.103077-0.103077 0.103077-0.103077 0.103077-0.103077 0.103077-0.103077 0.103077-0.103077 0.103077-0.103077 0.103077-0.103077 0.103077-0.103077 0.103077-0.103077 0.103077-0.103077 0.103077-0.103077 0.103077-0.103077 0.103077-0.103077 0.103077-0.103077 0.103077-0.103077 0.103077-0.103077 0.103077-0.103077 0.103077-0.103077 0.103077-0.103077 0.103077-0.103077 0.103077-0.103077 0.103077-0.103077 0.103077-0.103077 0.103077-0.103077 0.103077-0.103077 0.103077-0.103077 0.103077-0.103077 0.103077-0.103077 0.103077-0.103077 0.103077-0.103077 0.103077-0.103077 426.944934-222.234012 0.206154-0.103077 0.206154-0.103077 0.206154-0.103077 0.206154-0.103077 0.206154-0.103077 0.206154-0.103077 0.206154-0.103077 0.206154-0.103077 0.206154-0.103077 0.206154-0.103077 0.206154-0.103077 0.206154-0.103077 0.206154-0.103077 0.206154-0.103077 0.206154-0.103077 0.206154-0.103077 0.206154-0.103077 0.206154-0.103077 0.206154-0.103077 0.206154-0.103077 0.206154-0.103077 0.206154-0.103077 0.206154-0.103077 0.206154-0.103077 0.206154-0.103077 0.206154-0.103077 0.206154-0.103077 0.206154-0.103077 0.206154-0.103077 0.206154-0.103077 0.206154 0 0.206154-0.103077 0.206154 0 0.206154-0.103077 0.206154-0.103077 0.206154 0 0.206154 0 0.206154 0 0.206154 0 0.206154 0 0.206154 0 0.206154 0 0.206154 0 0.206154 0 0.206154 0 0.206154 0 0.206154 0 0.206154 0 0.206154 0 0.206154 0 0.206154 0 0.206154 0 0.206154 0 0.206154 0 0.206154 0 0.206154 0 0.206154 0 0.206154 0 0.206154 0 0.206154 0 0.206154 0 0.206154 0 0.206154 0 0.206154 0L512.018047 63.895726zM274.631716 255.618946 747.9613 255.618946l-236.252484-123.383169L274.631716 255.618946zM344.3 369.9c-3-3-7.1-4.7-11.3-4.7-46 0-178 0-224 0-4.2 0-8.3 1.7-11.3 4.7-3 3-4.7 7.1-4.7 11.3 0 9.8 0 22.2 0 32 0 4.2 1.7 8.3 4.7 11.3 3 3 7.1 4.7 11.3 4.7 17.4 0 47.2 0 79.9 0 0 5.8 0 239.9 0 303.9 0 4.2 1.7 8.3 4.7 11.3 3 3 7.1 4.7 11.3 4.7 9.8 0 22.2 0 32 0 4.2 0 8.3-1.7 11.3-4.7 3-3 4.7-7.1 4.7-11.3 0-64 0-298.1 0-303.9 32.8 0 62.6 0 80.1 0 4.2 0 8.3-1.7 11.3-4.7 3-3 4.7-7.1 4.7-11.3 0-9.8 0-22.2 0-32C349 377 347.3 372.9 344.3 369.9zM645.6 727.2c-17.2-68.7-73.8-295-87.5-349.8-1.8-7.1-8.1-12.1-15.4-12.1-8.3-0.1-19.3-0.1-28.9-0.2-1.1 0-2.2 0.1-3.3 0.3-1.1-0.2-2.2-0.3-3.3-0.3-9.6 0.1-20.6 0.1-28.9 0.2-7.3 0.1-13.6 5-15.4 12-13.9 54.8-71.7 281.8-89.3 350.8-1.2 4.8-0.2 9.9 2.9 13.8 3 3.9 7.7 6.2 12.6 6.2 10.2 0 22.1 0 30.8 0 7.4 0 13.8-5 15.5-12.1 5.1-20.4 16-64.2 28.6-114.9l91.6 0c12.2 50.2 22.8 93.5 27.8 113.8 1.7 7.2 8.2 12.2 15.5 12.2 8.8 0 20.8 0 30.9 0 4.9 0 9.6-2.3 12.6-6.2C645.7 737.1 646.8 732 645.6 727.2zM480.1 557.1c10.9-43.6 21.7-87.3 30.3-121.9 8.5 34.7 19.1 78.3 29.8 121.9L480.1 557.1zM895.9508 810.22c0-5.7-4.6-10.2-10.2-10.2L138.2508 800.02c-5.7 0-10.2 4.6-10.2 10.2l0 43.5c0 5.6 4.6 10.2 10.2 10.2l747.5 0c5.7 0 10.2-4.6 10.2-10.2L895.9508 810.22zM959.945383 905.22c0-5.7-4.550013-10.2-10.266696-10.2L74.209519 895.02c-5.600016 0-10.266696 4.6-10.266696 10.2l0 43.5c0 5.6 4.550013 10.2 10.266696 10.2l875.469168 0c5.600016 0 10.266696-4.6 10.266696-10.2L959.945383 905.22z" /></svg>